<?xml version="1.0" standalone="no"?>
<!DOCTYPE svg PUBLIC "-//W3C//DTD SVG 20010904//EN"
 "http://www.w3.org/TR/2001/REC-SVG-20010904/DTD/svg10.dtd">
<svg version="1.0" xmlns="http://www.w3.org/2000/svg"
 width="2400.000000pt" height="2400.000000pt" viewBox="0 0 2400.000000 2400.000000"
 preserveAspectRatio="xMidYMid meet">

<g transform="translate(0.000000,2400.000000) scale(0.100000,-0.100000)"
fill="#000000" stroke="none">
<path d="M4745 17034 c-312 -37 -521 -136 -730 -348 -199 -201 -330 -458 -365
-716 -25 -185 26 -526 117 -770 106 -286 271 -521 589 -837 217 -215 274 -290
274 -361 0 -36 -5 -49 -30 -72 -47 -44 -106 -55 -275 -53 -82 2 -930 5 -1883
8 l-1732 6 0 -791 0 -790 2318 0 c1437 1 2345 4 2392 10 303 39 594 202 798
446 203 242 294 482 313 824 20 377 22 454 10 525 -18 101 -63 210 -129 308
-53 81 -584 718 -750 900 -133 147 -146 214 -49 257 85 37 169 40 1268 40
l1069 0 0 -1655 0 -1655 770 0 770 0 0 1655 0 1655 1040 0 1040 0 0 710 0 710
-3397 -1 c-1869 -1 -3411 -4 -3428 -5z"/>
<path d="M12497 17033 c-3 -5 -317 -1063 -697 -2353 -381 -1290 -695 -2351
-697 -2358 -4 -10 152 -12 773 -10 l778 3 125 328 124 327 821 0 821 0 120
-327 120 -328 758 -3 c716 -2 757 -1 757 15 -1 10 -296 1073 -658 2363 l-657
2345 -1242 3 c-683 1 -1244 -1 -1246 -5z m1548 -2078 c134 -461 243 -840 241
-842 -1 -2 -234 -2 -518 -1 l-514 3 265 858 c188 609 268 853 274 840 4 -10
118 -396 252 -858z"/>
<path d="M16900 14675 l0 -2365 850 0 850 0 2 784 3 785 172 -197 c404 -464
734 -816 949 -1013 318 -291 386 -328 649 -349 68 -5 728 -10 1518 -10 l1397
0 0 790 0 790 -1098 0 c-1102 0 -1195 3 -1327 36 -117 30 -212 94 -234 156
-10 27 -9 28 22 28 56 0 160 30 233 66 296 146 560 555 658 1022 83 395 54
697 -96 997 -80 159 -160 267 -303 410 -218 219 -417 335 -705 412 -60 16
-189 18 -1802 20 l-1738 3 0 -2365z m2932 1133 c81 -37 151 -107 192 -189 45
-89 60 -164 53 -266 -11 -185 -128 -319 -307 -353 -31 -6 -278 -10 -611 -10
l-559 0 0 425 0 426 588 -3 587 -3 57 -27z"/>
<path d="M710 11705 c0 -6 1356 -4605 1376 -4667 l16 -48 708 0 c666 0 709 1
714 18 97 325 670 2189 675 2195 4 4 142 -491 308 -1100 l300 -1108 694 -3
694 -2 689 2347 c379 1292 691 2354 693 2361 4 10 -148 12 -753 10 l-757 -3
-232 -773 c-128 -425 -234 -775 -237 -777 -3 -3 -110 346 -239 775 l-234 780
-915 0 -915 0 -199 -768 c-109 -422 -202 -773 -205 -780 -4 -7 -99 315 -210
715 -112 401 -211 752 -219 781 l-15 52 -868 0 c-478 0 -869 -2 -869 -5z"/>
<path d="M19880 11691 c-395 -85 -718 -397 -861 -833 -47 -145 -62 -253 -56
-398 21 -450 150 -793 437 -1162 35 -46 155 -174 267 -285 218 -218 273 -287
280 -356 4 -36 1 -48 -22 -75 -40 -48 -112 -65 -265 -64 -1905 13 -2287 19
-2350 34 -138 34 -283 103 -369 175 l-34 29 79 12 c146 23 292 109 430 254
193 205 342 512 409 842 81 403 48 699 -112 1007 -220 424 -668 759 -1083 809
-69 8 -562 10 -1775 8 l-1680 -3 0 -2360 0 -2360 850 0 850 0 5 784 5 783 31
-38 c56 -70 343 -395 529 -599 258 -284 416 -446 578 -593 309 -281 379 -316
652 -331 77 -4 1015 -1 2085 6 2143 14 2024 10 2227 78 229 77 427 199 598
370 121 121 194 220 260 353 83 168 114 303 122 517 12 318 -35 495 -189 717
-56 81 -690 837 -794 948 -151 160 -171 241 -70 290 89 43 94 43 1259 47
l1117 4 0 705 0 704 -1662 -1 c-1564 0 -1668 -1 -1748 -18z m-3759 -1238 c255
-126 320 -519 117 -709 -52 -49 -105 -75 -186 -93 -36 -7 -234 -11 -612 -11
l-560 0 0 425 0 426 588 -3 587 -3 66 -32z"/>
<path d="M8666 11681 c-3 -5 -316 -1061 -696 -2347 -380 -1287 -693 -2347
-696 -2357 -5 -16 35 -17 771 -15 l777 3 43 110 c23 61 79 208 125 328 l83
217 821 0 821 0 120 -328 120 -327 759 -3 758 -2 -6 32 c-4 18 -300 1081 -659
2363 l-653 2330 -1241 3 c-715 1 -1244 -2 -1247 -7z m1544 -2063 c137 -469
247 -854 246 -856 -2 -1 -235 -1 -518 0 l-515 3 208 675 c115 371 234 757 266
858 31 100 58 180 60 178 3 -3 117 -388 253 -858z"/>
</g>
</svg>
